<svg xmlns="http://www.w3.org/2000/svg" viewBox="0 0 177.77 134.7"><defs><style>.cls-1{fill:#fff;}.cls-2{fill:none;}</style></defs><g id="Layer_2" data-name="Layer 2"><g id="Layer_1-2" data-name="Layer 1"><path class="cls-1" d="M173.52,18.34c2.63,7.62-3.61,17.78-17.57,28.6s-33.88,21-56.17,28.64-44.28,12-61.9,12h-.49a79.14,79.14,0,0,1-13.34-1c5,1.59,11.5,2.43,19.27,2.43h.11c17.4,0,39.11-4.2,61.13-11.79S146.26,59.58,160,48.87s19.79-20.69,17.21-28.2c-1.07-3.1-3.58-5.6-7.35-7.5A11.77,11.77,0,0,1,173.52,18.34Z"/><path class="cls-1" d="M40.65,36.63h0l3.91,1.73h0Z"/><path class="cls-1" d="M40.34,36.5l-2.48-1.1h0l2.49,1.1Z"/><path class="cls-1" d="M37.86,35.4l-.3-.14h0l.3.13Z"/><path class="cls-1" d="M40.34,36.5h0l.3.13h0Z"/><path class="cls-1" d="M44.55,38.36h0l.24.11Z"/><path class="cls-1" d="M166,22.41a10.6,10.6,0,0,0-4.77-5.79l-.41-.15h0a6.22,6.22,0,0,1,2.46,3.16c1.61,5.13-4.89,12.46-18.31,20.63s-32,16.17-52.55,22.6S52,73.37,36.34,74.32c-2.31.14-4.5.21-6.54.21-8.31,0-14.29-1.16-17.58-3.38L12,71a6.21,6.21,0,0,1-2.45-3.15c-1.61-5.14,4.89-12.47,18.3-20.63a176.8,176.8,0,0,1,16.71-8.85l-3.91-1.73-.3-.13-2.49-1.1A155,155,0,0,0,19.21,45.89C5,55.35-1.67,64.34.35,71.19c.89,3,3.44,5.41,7.32,7.2l.47.22a35.34,35.34,0,0,0,5.7,1.85l.41.1h0c16.45,3.79,45.27,1.17,76.5-8C112.89,66,132.92,57.2,147.13,47.71S168,29.26,166,22.41Z"/><path class="cls-1" d="M160.77,16.46l0,0h0Z"/><path class="cls-1" d="M39.44,70c-7.49,0-12-1.46-12.87-4.22-1.05-3.33,3.33-8.14,12.32-13.55a137.21,137.21,0,0,1,17.82-8.77l-6.18-2.2c-21.18,9.21-34.84,19.08-33,24.95,1.22,3.86,9,5.42,21.86,4.39,4-.32,8.39-.88,13-1.66-2.8.4-5.47.7-8,.87C42.64,69.89,41,70,39.44,70Z"/><path class="cls-2" d="M77.16,20.06l-3.2,0,.5-.18L39.88,31.33h0l3-1,0,2.31L57.12,39H60L92.34,28.28l0-1.46ZM63,36.09,56.42,36l-5.65-2.74,0-3,21-7,6.64.87,6.1,2.38-.29,2.21Z"/><polygon class="cls-1" points="77.16 20.06 75.8 19.46 74.46 19.9 73.96 20.08 77.16 20.06"/><path class="cls-1" d="M75.85,18.52,37.46,31.21l20.83,9.25L96.67,27.77ZM60,39h.21l-1.92.68L57,39h.11L42.85,32.65v.09l-3.08-1.37.12,0h0L74.46,19.9l1.41-.51,1.3.67h0l15.22,6.76v-.48l3.07,1.37-3.13,1v-.46Z"/><polygon class="cls-1" points="77.16 20.06 77.17 20.06 75.87 19.39 74.46 19.9 75.8 19.46 77.16 20.06"/><path class="cls-1" d="M78.41,24.16l-6.64-.87-21,7,0,3L56.42,36l6.58.06,21.22-7.34.29-2.21ZM68.16,31.53c-4.13,1.13-7.75,1-8.09-.19s2.73-3.16,6.86-4.29,7.76-1.05,8.1.18S72.3,30.39,68.16,31.53Z"/><polygon class="cls-1" points="92.38 26.82 92.34 28.28 94.25 27.65 92.38 26.82"/><polygon class="cls-1" points="95.46 27.71 92.39 26.34 92.38 26.82 94.25 27.65 92.34 28.28 92.33 28.74 95.46 27.71"/><polygon class="cls-1" points="39.89 31.33 42.85 32.65 42.9 30.34 39.89 31.33"/><polygon class="cls-1" points="39.77 31.37 42.84 32.74 42.85 32.65 39.89 31.33 39.77 31.37"/><polygon class="cls-1" points="58.34 39.52 60.01 38.97 57.12 38.98 58.34 39.52"/><polygon class="cls-1" points="57.12 38.98 57.01 38.98 58.3 39.65 60.22 38.97 60.01 38.97 58.34 39.52 57.12 38.98"/><path class="cls-1" d="M97.51,0H57a9.26,9.26,0,0,0-9.25,9.26V25.34l6-2.05v-14A3.26,3.26,0,0,1,57,6H97.51a3.26,3.26,0,0,1,3.26,3.26V49.72A3.26,3.26,0,0,1,97.51,53H57a3.26,3.26,0,0,1-3.25-3.26V45.13l-6,2.9v1.69A9.26,9.26,0,0,0,57,59H97.51a9.27,9.27,0,0,0,9.26-9.26V9.26A9.27,9.27,0,0,0,97.51,0Z"/><path class="cls-1" d="M66.4,49.46c9.91-.91,19.82-1,29.75-.94l-.93.94c.1-6.59.31-13.17.93-19.73.63,6.56.84,13.14.94,19.73v.93h-.95c-9.93.08-19.84,0-29.75-.94Z"/><path class="cls-1" d="M69.67,11c-4.21.35-8.44.36-12.66.29l.28-.29c0,1.83-.12,3.65-.28,5.46-.08-.91-.14-1.82-.19-2.73s-.09-2-.1-3a127.22,127.22,0,0,1,13,.28Z"/><path class="cls-1" d="M107.37.56l15.48,4.16a9.9,9.9,0,0,1,7.33,9.55v29L111.11,53.49,111,10.71a14.41,14.41,0,0,0-1.8-6.91Z"/><path class="cls-1" d="M19.1,107.63a38,38,0,0,0-.88,4.72h-.17c.11-1.14-.09-2-1.39-2.25-1-.14-3.17-.25-5.07-.28-.12,2.73-.15,5.78-.15,9s0,4.73.2,7.6c.09,1.42.69,2.11,2.37,2.48V129c-1.43-.09-3-.17-4.3-.17s-2.88.08-4.33.17v-.17c1.65-.34,2.31-1.06,2.39-2.48.17-2.56.2-4.64.2-7.6s0-6.07-.17-9a46,46,0,0,0-5.21.31c-1.37.2-1.74,1.28-2.19,2.48l-.17,0a35.11,35.11,0,0,0,1.05-5h.17c-.06.71.14.77.48.83.89.11,5.61.22,7.69.22s7.38-.14,8.37-.25c.52-.09.8-.17.94-.74Z"/><path class="cls-1" d="M35.22,124.26a21.9,21.9,0,0,0,0,4.72c-2.42-.17-4.7-.17-6.58-.17s-5.27,0-7.2.17v-.17c1.62-.34,2.3-.88,2.39-2.53.14-2.65.14-4.33.14-7.55,0-2.85,0-4.92-.17-7.49a2.51,2.51,0,0,0-2.39-2.59v-.17c2,.09,4.53.17,7.23.17,2.51,0,4.84-.08,6.47-.2a19.78,19.78,0,0,0,0,4.36h-.17c-.46-2.42-1.71-3.19-4.36-3.19-.74,0-1.65,0-3,.14-.14,3.9-.17,5.67-.17,8,.71,0,1.59,0,3-.06,2.13-.08,2.45-.85,2.73-2.16l.17,0c-.08.91-.17,1.85-.17,2.68a22.14,22.14,0,0,0,.17,2.67l-.17,0c-.37-1.51-.57-2-2.73-2.14-1,0-2-.08-3-.08,0,3.16,0,5.38.11,6.63.11,2,1.85,2.2,3.47,2.2,2.42,0,3.45-.72,4-3.36Z"/><path class="cls-1" d="M47,108.48v.17c-1.68.34-2.28,1-2.36,2.45-.17,2.9-.2,4.33-.2,7.63,0,4.67-.06,5.87-.17,7.15-.37,4.07-2.22,6.23-6.92,8.82l-.09-.17c2.48-1.76,3.19-4.35,3.53-8.42.12-1.29.17-2.74.17-7.38,0-3,0-5-.17-7.6-.08-1.45-.74-2.14-2.39-2.48v-.17c1.45.09,3,.17,4.3.17S45.59,108.57,47,108.48Z"/><path class="cls-1" d="M68.82,128.81V129c-1-.08-2.79-.17-4-.17s-3.25.06-4.64.17v-.17c1.73-.17,2.5-1,1.87-2.62-.31-.85-.74-1.82-1.19-2.9-1.17,0-2.65-.06-4-.06s-2.74,0-3.79.09c-.37.94-.71,1.87-1.08,2.81-.63,1.68-.17,2.48,1.62,2.68V129c-.94-.08-2.16-.17-3.08-.17a29.19,29.19,0,0,0-2.93.17v-.17c.91-.14,1.8-1,2.56-2.68,2.37-5.35,5.87-13.49,7.61-18h.05c2.91,6.49,4.64,10.16,8.37,18C66.88,127.79,67.42,128.56,68.82,128.81Zm-8.63-7c-1.16-2.68-2.53-5.56-3.53-7.66-1,2.33-2,4.95-3.07,7.66,1,0,2.22.11,3.16.11S59.05,121.89,60.19,121.84Z"/><path class="cls-1" d="M70.62,127.59a19.5,19.5,0,0,0,0-3.82h.17c.54,2.79,2.5,4.3,4.72,4.3,1.94,0,3.53-1.08,3.53-3.13,0-4.59-8.08-6.21-8.08-11.62,0-3.5,3.16-5.12,6.38-5.12a7.16,7.16,0,0,1,3.92,1,14.63,14.63,0,0,0,0,3.5h-.17c-.45-2.39-1.88-3.36-3.61-3.36-2,0-3.11,1.25-3.11,2.71,0,4,8.12,5.72,8.12,11.42,0,3.5-3,5.75-6.81,5.75A8.18,8.18,0,0,1,70.62,127.59Z"/><path class="cls-1" d="M106.46,124.28a22,22,0,0,0,0,4.73c-2.42-.17-4.69-.2-6.57-.2s-5.3,0-7.23.17v-.17c1.62-.34,2.3-.88,2.39-2.53.14-2.65.14-4.33.14-7.55,0-3,0-5-.17-7.6-.09-1.45-.74-2.14-2.39-2.48v-.17c1.45.09,3,.17,4.3.17s2.87-.08,4.3-.17v.17c-1.68.34-2.28,1-2.37,2.45-.17,2.9-.2,4.33-.2,7.63s0,5.41.12,6.66c.11,2,1.85,2.2,3.5,2.2,2.42,0,3.44-.69,4-3.33Z"/><path class="cls-1" d="M108.54,118.79c0-6,4.53-10.62,10.94-10.62,6.2,0,11,4.41,11,10.5s-4.45,10.6-10.88,10.6C113.41,129.27,108.54,124.85,108.54,118.79Zm18.23.6c0-5-2.62-10.06-7.52-10.06-4.21,0-7,3.76-7,8.69,0,5.1,2.68,10.08,7.58,10.08C124.06,128.1,126.77,124.43,126.77,119.39Z"/><path class="cls-1" d="M152.56,128.81V129c-1-.08-2.79-.17-4-.17s-3.24.06-4.64.17v-.17c1.74-.17,2.51-1,1.88-2.62-.31-.85-.74-1.82-1.2-2.9-1.16,0-2.65-.06-4-.06s-2.73,0-3.79.09c-.37.94-.71,1.87-1.08,2.81-.62,1.68-.17,2.48,1.62,2.68V129c-.94-.08-2.16-.17-3.07-.17a29,29,0,0,0-2.93.17v-.17c.91-.14,1.79-1,2.56-2.68,2.36-5.35,5.86-13.49,7.6-18h.06c2.9,6.49,4.64,10.16,8.37,18C150.63,127.79,151.17,128.56,152.56,128.81Zm-8.62-7c-1.17-2.68-2.54-5.56-3.53-7.66-1,2.33-2,4.95-3.08,7.66,1,0,2.22.11,3.16.11S142.8,121.89,143.94,121.84Z"/><path class="cls-1" d="M175.77,108.48v.17c-1.42.34-2.19.91-2.28,2.51-.11,2.22-.14,4.15-.14,7.06,0,3.5,0,7.46,0,11.05h-.06c-4.87-4.82-9.85-9.54-15-14.15v3.38c0,3.16.05,5.3.17,7.75.08,1.65.85,2.22,2.28,2.56V129c-1.46-.11-2.51-.17-3.42-.17s-1.8.06-3.22.17v-.17c1.42-.34,2.19-.91,2.28-2.5.11-2.48.14-4.62.14-7.78s0-7.09,0-10.36h.06c5,4.92,10,9.62,15,14.15V118c0-2.82-.05-4.64-.17-6.8-.08-1.63-.85-2.2-2.27-2.54v-.17c1.45.11,2.42.17,3.36.17S174.35,108.59,175.77,108.48Z"/></g></g></svg>