<svg width="70" height="53" viewBox="0 0 70 53" fill="none" xmlns="http://www.w3.org/2000/svg">
<mask id="mask0_509_87" style="mask-type:luminance" maskUnits="userSpaceOnUse" x="0" y="0" width="70" height="53">
<path d="M69.9096 0H0V52.9019H69.9096V0Z" fill="white"/>
</mask>
<g mask="url(#mask0_509_87)">
<path d="M68.2382 6.98025C69.2725 9.9718 66.8186 13.9605 61.3287 18.2084C55.8388 22.4562 48.0051 26.4371 39.2395 29.4444C30.4737 32.4517 21.826 34.1555 14.8968 34.1555H14.7041C12.9474 34.1727 11.1925 34.0413 9.45801 33.7629C11.4243 34.3911 13.9805 34.7208 17.0361 34.7208H17.0794C23.9221 34.7208 32.4597 33.068 41.1191 30.0922C49.7787 27.1163 57.518 23.1629 62.9214 18.97C68.3247 14.7771 70.704 10.8434 69.6893 7.89499C69.2686 6.68188 68.2815 5.69647 66.7989 4.95447C67.4552 5.48565 67.9531 6.18631 68.2382 6.98025Z" fill="#0063B9"/>
<path d="M15.864 14.1098L14.8887 13.678L15.8679 14.1098H15.864Z" fill="#0063B9"/>
<path d="M65.281 8.5782C64.953 7.61827 64.286 6.81031 63.4051 6.30508L63.2439 6.25012C63.6934 6.54531 64.0335 6.97983 64.2113 7.48679C64.8444 9.50079 62.2883 12.3785 57.0107 15.586C51.7332 18.7935 44.4265 21.9342 36.3451 24.4586C28.2636 26.9829 20.4495 28.5847 14.2911 28.9577C13.3827 29.0126 12.5215 29.0401 11.7192 29.0401C8.45123 29.0401 6.09955 28.5847 4.80573 27.7132L4.71921 27.6503C4.2705 27.3552 3.93185 26.9205 3.75572 26.4137C3.12257 24.3958 5.67876 21.522 10.9524 18.3145C13.0784 17.04 15.2721 15.8814 17.5237 14.844L15.9861 14.1648L15.8681 14.1098L14.8889 13.678C12.352 14.8804 9.90141 16.2565 7.55461 17.7963C1.9664 21.5141 -0.656638 25.0396 0.137745 27.7289C0.487744 28.9066 1.49055 29.8567 3.0164 30.5555L3.20123 30.6419C3.92568 30.95 4.67572 31.1944 5.44281 31.3721L5.60404 31.4075C12.0731 32.8993 23.4069 31.8707 35.6883 28.2667C44.395 25.707 52.272 22.2443 57.8602 18.5186C63.4484 14.7929 66.0675 11.2675 65.281 8.5782Z" fill="#0063B9"/>
<path d="M15.5105 27.242C12.565 27.242 10.7914 26.6727 10.4493 25.5852C10.0363 24.2779 11.7588 22.3778 15.2942 20.2695C17.5428 18.9514 19.885 17.7993 22.3021 16.8226L19.8717 15.9589C11.5425 19.5786 6.1706 23.4495 6.8942 25.754C7.37397 27.2695 10.4335 27.8858 15.4908 27.4815C17.0639 27.3558 18.7903 27.132 20.6032 26.8258C19.5021 26.9868 18.4521 27.1006 17.4571 27.1713C16.7689 27.2184 16.124 27.242 15.5105 27.242Z" fill="#0063B9"/>
<path d="M30.5837 7.89109L29.3213 7.89894L30.0724 7.62805" fill="#000080"/>
<path d="M30.0529 7.47107L15.4434 12.2921L23.167 15.7155L37.7765 10.8945L30.0529 7.47107Z" stroke="#000080" stroke-width="0.87" stroke-miterlimit="10"/>
<path d="M20.2174 11.9191L28.4601 9.15918L31.0713 9.50074L33.4702 10.4351L33.3562 11.3027L25.0112 14.1844L22.4236 14.1647L20.2017 13.089L20.2174 11.9191Z" fill="#000080"/>
<path d="M26.8685 12.4629C28.4865 12.0254 29.6919 11.2793 29.5609 10.7964C29.4299 10.3135 28.012 10.2767 26.394 10.7141C24.7761 11.1516 23.5706 11.8977 23.7016 12.3806C23.8326 12.8635 25.2505 12.9004 26.8685 12.4629Z" fill="white"/>
<path d="M36.565 10.3566L36.5493 11.2988L37.7763 10.8944" fill="#000080"/>
<path d="M17.0872 12.8692L17.1069 11.927L15.876 12.3314" fill="#000080"/>
<path d="M22.6558 15.3229L23.9181 15.3151L23.167 15.586" fill="#000080"/>
<path d="M38.5826 0H22.6675C22.1883 0.000512168 21.7138 0.0954436 21.2715 0.279352C20.8291 0.463259 20.4274 0.732531 20.0895 1.07172C19.7515 1.41092 19.484 1.81336 19.3021 2.25599C19.1203 2.69861 19.0278 3.17271 19.0298 3.65111V9.964L21.3894 9.15919V3.65111C21.3873 3.48205 21.4188 3.31426 21.4821 3.15742C21.5453 3.00058 21.639 2.85781 21.7579 2.73734C21.8767 2.61688 22.0183 2.52112 22.1744 2.45559C22.3305 2.39006 22.4981 2.35606 22.6675 2.35556H38.5826C38.751 2.35556 38.9177 2.38866 39.0733 2.45298C39.2288 2.5173 39.3702 2.61157 39.489 2.73041C39.6082 2.84926 39.7025 2.99035 39.767 3.14563C39.8315 3.30091 39.8646 3.46733 39.8646 3.63541V19.5393C39.8614 19.8767 39.725 20.1992 39.4851 20.4367C39.2449 20.6742 38.9206 20.8074 38.5826 20.8074H22.6675C22.3288 20.8064 22.0043 20.6716 21.7649 20.4326C21.5254 20.1935 21.3904 19.8695 21.3894 19.5315V17.7256L19.0298 18.8641V19.5315C19.0309 20.4943 19.4145 21.4174 20.0964 22.0982C20.7784 22.779 21.703 23.1619 22.6675 23.163H38.5826C39.5476 23.163 40.4733 22.7805 41.156 22.0995C41.8391 21.4186 42.2233 20.495 42.2241 19.5315V3.65111C42.2257 3.17253 42.1329 2.69834 41.9504 2.25569C41.7683 1.81304 41.5001 1.41062 41.1619 1.07149C40.8237 0.732346 40.4218 0.463138 39.9794 0.279278C39.5366 0.0954177 39.062 0.000513766 38.5826 0Z" fill="#000080"/>
<path d="M26.3483 19.4334C30.2395 19.1155 34.1443 18.9936 38.0477 19.0682L37.682 19.4334C37.7213 16.8462 37.8039 14.2668 38.0477 11.6875C38.2955 14.2668 38.3781 16.8462 38.4174 19.4334V19.7985H38.0241C34.1191 19.8299 30.2219 19.7985 26.3247 19.4294L26.3483 19.4334Z" fill="#000080"/>
<path d="M27.6347 4.31854C25.9781 4.43957 24.3164 4.47624 22.656 4.42846L22.7661 4.31854C22.7661 5.03306 22.719 5.74758 22.656 6.46209C22.6246 6.10483 22.601 5.74758 22.5813 5.39032C22.5617 5.03306 22.5459 4.60513 22.542 4.21254C24.2402 4.15958 25.9401 4.19495 27.6347 4.31854Z" fill="#000080"/>
<path d="M42.2241 0L48.3118 1.63319C49.1388 1.85514 49.8695 2.34318 50.3909 3.0217C50.912 3.70022 51.1943 4.53134 51.1943 5.38637V16.7716L43.6949 20.7839L43.6516 3.98874C43.6473 3.03826 43.4039 2.10408 42.9438 1.272L42.2241 0Z" fill="#000080"/>
<path d="M0.541016 42.8197V41.9466H6.64798V42.8197H4.08751V50.0752H3.10148V42.8197H0.541016ZM8.16973 50.0752V41.9466H13.0839V42.8197H9.15575V45.5663H12.8294V46.4394H9.15575V49.2021H13.1475V50.0752H8.16973ZM17.9782 41.9466H18.9642V47.7573C18.9642 48.276 18.8688 48.7164 18.678 49.0788C18.4871 49.4416 18.2181 49.7168 17.8709 49.9044C17.5237 50.0925 17.1141 50.1863 16.6423 50.1863C16.197 50.1863 15.8008 50.1054 15.4535 49.9441C15.1063 49.78 14.8333 49.5472 14.6345 49.2457C14.4357 48.9441 14.3363 48.5853 14.3363 48.17H15.3064C15.3064 48.4004 15.3634 48.6014 15.4774 48.7734C15.594 48.9426 15.7531 49.0749 15.9545 49.1703C16.1559 49.2657 16.3852 49.3132 16.6423 49.3132C16.9259 49.3132 17.1671 49.2535 17.3659 49.1346C17.5647 49.0156 17.7158 48.8409 17.8192 48.6104C17.9252 48.3776 17.9782 48.0934 17.9782 47.7573V41.9466ZM21.2742 50.0752H20.2405L23.2303 41.9466H24.2482L27.238 50.0752H26.2043L23.7711 43.2323H23.7075L21.2742 50.0752ZM21.6559 46.8999H25.8226V47.773H21.6559V46.8999ZM32.9593 43.9786C32.9116 43.5762 32.7181 43.2641 32.3788 43.0419C32.0396 42.8197 31.6234 42.7086 31.1304 42.7086C30.7699 42.7086 30.4545 42.7667 30.1841 42.8833C29.9164 42.9995 29.707 43.1597 29.556 43.3634C29.4075 43.5672 29.3333 43.7988 29.3333 44.0579C29.3333 44.275 29.385 44.4615 29.4884 44.6178C29.5944 44.7713 29.7296 44.8993 29.8939 45.0025C30.0583 45.103 30.2305 45.1866 30.4108 45.2526C30.591 45.3162 30.7567 45.3676 30.9078 45.4077L31.7348 45.6299C31.9468 45.6852 32.1827 45.7622 32.4425 45.8599C32.7048 45.9577 32.9554 46.0916 33.1939 46.2608C33.4351 46.4276 33.6339 46.642 33.7903 46.9038C33.9466 47.1657 34.0249 47.4872 34.0249 47.8684C34.0249 48.3078 33.9096 48.7047 33.679 49.0592C33.451 49.4137 33.117 49.6956 32.677 49.9044C32.2397 50.1137 31.7083 50.2181 31.0827 50.2181C30.4996 50.2181 29.9946 50.1243 29.5679 49.9362C29.1438 49.7486 28.8098 49.4863 28.566 49.1503C28.3248 48.8142 28.1883 48.424 28.1565 47.9796H29.1743C29.2008 48.2866 29.3041 48.5406 29.4844 48.7416C29.6673 48.9402 29.8979 49.0882 30.1762 49.186C30.4572 49.2814 30.7593 49.3289 31.0827 49.3289C31.4591 49.3289 31.7971 49.268 32.0966 49.1463C32.3961 49.0219 32.6333 48.8499 32.8082 48.6305C32.9832 48.4083 33.0707 48.1488 33.0707 47.8524C33.0707 47.5826 32.9951 47.3628 32.844 47.1936C32.6929 47.0244 32.4941 46.8866 32.2476 46.781C32.0011 46.675 31.7348 46.5823 31.4485 46.503L30.4466 46.2172C29.8104 46.0346 29.3068 45.774 28.9357 45.4352C28.5647 45.0967 28.3791 44.6535 28.3791 44.1054C28.3791 43.6504 28.5024 43.2535 28.7489 42.9147C28.998 42.5735 29.332 42.3089 29.7508 42.1209C30.1722 41.9305 30.6427 41.8351 31.1622 41.8351C31.687 41.8351 32.1535 41.9293 32.5617 42.117C32.9699 42.3023 33.2933 42.5563 33.5318 42.879C33.7731 43.2021 33.9003 43.5684 33.9135 43.9786H32.9593ZM38.7949 50.0752V41.9466H39.7807V49.2021H43.5659V50.0752H38.7949ZM51.6457 46.0107C51.6457 46.8681 51.4908 47.6089 51.1809 48.2336C50.8706 48.8582 50.4451 49.3395 49.9044 49.6783C49.3637 50.0171 48.7463 50.1863 48.0518 50.1863C47.3573 50.1863 46.7398 50.0171 46.1991 49.6783C45.6584 49.3395 45.2329 48.8582 44.9226 48.2336C44.6127 47.6089 44.4574 46.8681 44.4574 46.0107C44.4574 45.1533 44.6127 44.4125 44.9226 43.7882C45.2329 43.1636 45.6584 42.6819 46.1991 42.3435C46.7398 42.0047 47.3573 41.8351 48.0518 41.8351C48.7463 41.8351 49.3637 42.0047 49.9044 42.3435C50.4451 42.6819 50.8706 43.1636 51.1809 43.7882C51.4908 44.4125 51.6457 45.1533 51.6457 46.0107ZM50.6917 46.0107C50.6917 45.3068 50.5737 44.7128 50.3378 44.2287C50.1046 43.7443 49.788 43.378 49.3877 43.1291C48.9901 42.8806 48.5449 42.7561 48.0518 42.7561C47.5586 42.7561 47.1123 42.8806 46.7119 43.1291C46.3143 43.378 45.9974 43.7443 45.7618 44.2287C45.5282 44.7128 45.4118 45.3068 45.4118 46.0107C45.4118 46.7146 45.5282 47.3086 45.7618 47.7931C45.9974 48.2771 46.3143 48.6438 46.7119 48.8923C47.1123 49.1412 47.5586 49.2657 48.0518 49.2657C48.5449 49.2657 48.9901 49.1412 49.3877 48.8923C49.788 48.6438 50.1046 48.2771 50.3378 47.7931C50.5737 47.3086 50.6917 46.7146 50.6917 46.0107ZM53.2554 50.0752H52.2215L55.2114 41.9466H56.2292L59.2191 50.0752H58.1852L55.7522 43.2323H55.6884L53.2554 50.0752ZM53.6368 46.8999H57.8034V47.773H53.6368V46.8999ZM66.9443 41.9466V50.0752H65.9899L61.5527 43.6928H61.4733V50.0752H60.4874V41.9466H61.4414L65.8943 48.3447H65.9741V41.9466H66.9443Z" fill="#000080"/>
</g>
</svg>
